<svg version="1.0" xmlns="http://www.w3.org/2000/svg" viewBox="0 0 550 56" class="main_logo" fill="white"><g transform="translate(0.000000,56.000000) scale(0.100000,-0.100000)" fill="currentColor" stroke="none"><path d="M2334 546 c-61 -27 -97 -112 -75 -179 15 -44 64 -91 126 -118 78 -34
                 105 -56 105 -88 0 -38 -29 -61 -74 -61 -50 0 -76 15 -76 45 0 23 -4 25 -50 25
                 -50 0 -50 0 -50 -32 0 -38 30 -92 58 -107 44 -23 114 -32 168 -21 59 12 109
                 57 120 108 3 15 7 32 9 39 6 19 -14 79 -36 107 -12 15 -61 47 -109 71 -95 48
                 -112 70 -84 113 13 20 22 23 62 20 40 -3 47 -6 50 -26 3 -21 8 -23 50 -20 42
                 3 47 6 50 28 3 33 -31 88 -64 100 -36 14 -144 12 -180 -4z"></path><path d="M3283 553 c-36 -7 -81 -67 -88 -117 -6 -37 -3 -55 16 -93 22 -43 34
                 -53 119 -98 87 -46 95 -53 98 -82 4 -38 -26 -63 -76 -63 -46 0 -72 16 -72 45
                 0 23 -4 25 -50 25 -50 0 -50 0 -50 -32 0 -44 31 -93 72 -114 44 -23 152 -23
                 195 -1 72 38 105 121 78 194 -19 50 -51 76 -151 126 -78 39 -95 64 -68 105 13
                 20 22 23 62 20 40 -3 47 -6 50 -26 3 -21 8 -23 50 -20 40 3 47 6 50 25 5 32
                 -24 80 -58 98 -27 14 -123 19 -177 8z"></path><path d="M0 505 l0 -45 80 0 80 0 0 -220 0 -220 50 0 50 0 0 220 0 220 80 0
                 80 0 0 45 0 45 -210 0 -210 0 0 -45z"></path><path d="M430 285 l0 -265 160 0 160 0 0 50 0 50 -110 0 -110 0 0 65 0 64 88
                 3 87 3 3 43 3 42 -90 0 -91 0 0 55 0 55 100 0 100 0 0 50 0 50 -150 0 -150 0
                 0 -265z"></path><path d="M780 285 l0 -265 50 0 50 0 0 162 0 163 101 -163 100 -162 45 0 44 0
                 0 265 0 265 -45 0 -45 0 -2 -162 -3 -162 -86 139 c-47 77 -91 150 -98 163 -10
                 18 -20 22 -61 22 l-50 0 0 -265z"></path><path d="M1445 537 c-3 -7 -4 -125 -3 -262 l3 -250 50 0 50 0 3 92 c3 92 3 93
                 28 93 51 0 116 24 149 54 83 79 65 232 -31 272 -44 19 -243 19 -249 1z m206
                 -87 c15 -8 19 -21 19 -59 0 -57 -17 -76 -77 -85 l-43 -6 0 80 0 80 41 0 c22 0
                 49 -5 60 -10z"></path><path d="M1926 448 c-22 -57 -66 -169 -98 -249 -32 -80 -58 -153 -58 -162 0
                 -13 10 -17 44 -17 l45 0 21 57 c11 32 23 64 25 71 3 9 28 12 96 10 l91 -3 21
                 -65 22 -65 53 -3 53 -3 -7 28 c-9 35 -31 97 -86 243 -24 63 -54 148 -68 188
                 l-24 72 -46 0 -45 0 -39 -102z m123 -193 c1 -6 -20 -9 -49 -7 -27 2 -50 5 -50
                 7 0 1 7 20 16 41 9 22 21 50 26 64 10 24 11 22 34 -35 12 -33 23 -64 23 -70z"></path><path d="M2590 505 l0 -45 80 0 80 0 0 -220 0 -220 50 0 50 0 0 220 0 220 75
                 0 75 0 0 45 0 45 -205 0 -205 0 0 -45z"></path><path d="M3560 285 l0 -265 160 0 160 0 0 50 0 50 -110 0 -110 0 0 65 0 65 90
                 0 90 0 0 45 0 44 -87 3 -88 3 -3 52 -3 52 103 3 103 3 3 48 3 47 -155 0 -156
                 0 0 -265z"></path><path d="M3886 518 c3 -18 28 -89 54 -158 26 -69 64 -174 85 -233 l38 -108 45
                 3 46 3 78 195 c76 191 118 305 118 322 0 4 -20 8 -45 8 -45 0 -46 -1 -65 -46
                 -11 -25 -20 -50 -20 -54 0 -16 -103 -261 -108 -256 -5 6 -51 131 -96 263 l-31
                 92 -53 1 -54 0 8 -32z"></path><path d="M4360 285 l0 -265 160 0 160 0 0 50 0 50 -110 0 -110 0 0 65 0 65 90
                 0 90 0 0 45 0 44 -87 3 -88 3 -3 52 -3 52 103 3 103 3 3 48 3 47 -155 0 -156
                 0 0 -265z"></path><path d="M4720 285 l0 -265 45 0 45 0 2 163 3 162 50 -82 c28 -45 72 -118 99
                 -163 l49 -81 46 3 46 3 0 260 0 260 -47 3 -47 3 -3 -163 c-2 -110 -6 -157 -12
                 -143 -5 11 -34 57 -63 103 -29 45 -53 85 -53 87 0 3 -16 29 -35 60 -34 53 -37
                 55 -80 55 l-45 0 0 -265z"></path></g>
                 </svg>